<svg xmlns="http://www.w3.org/2000/svg" width="414pt" height="139pt" viewBox="0.00 0.00 414.00 139.00" role="img" aria-label="2. 의존 한 줄로 위반 발생">
<g id="graph0" class="graph" transform="scale(1 1) rotate(0) translate(25.2 114.17)">
<title>ieum</title>
<polygon fill="white" stroke="none" points="-25.2,25.2 -25.2,-114.17 389.05,-114.17 389.05,25.2 -25.2,25.2" />

<g id="node1" class="node">
<title>data</title>
<path fill="#f8fafc" stroke="#334155" d="M47.55,-38.97C47.55,-38.97 12,-38.97 12,-38.97 6,-38.97 0,-32.97 0,-26.97 0,-26.97 0,-12 0,-12 0,-6 6,0 12,0 12,0 47.55,0 47.55,0 53.55,0 59.55,-6 59.55,-12 59.55,-12 59.55,-26.97 59.55,-26.97 59.55,-32.97 53.55,-38.97 47.55,-38.97" />
<text xml:space="preserve" text-anchor="middle" x="29.77" y="-14.41" font-family="sans-serif" font-size="16.00">data</text>
</g>

<g id="node3" class="node">
<title>ui</title>
<path fill="#f8fafc" stroke="#334155" d="M187.55,-88.97C187.55,-88.97 157.55,-88.97 157.55,-88.97 151.55,-88.97 145.55,-82.97 145.55,-76.97 145.55,-76.97 145.55,-62 145.55,-62 145.55,-56 151.55,-50 157.55,-50 157.55,-50 187.55,-50 187.55,-50 193.55,-50 199.55,-56 199.55,-62 199.55,-62 199.55,-76.97 199.55,-76.97 199.55,-82.97 193.55,-88.97 187.55,-88.97" />
<text xml:space="preserve" text-anchor="middle" x="172.55" y="-64.41" font-family="sans-serif" font-size="16.00">ui</text>
</g>

<g id="edge1" class="edge" data-kind="dependency" data-violation="true">
<title>data-&gt;ui</title>
<path fill="none" stroke="#dc2626" stroke-width="2.5" d="M59.94,-29.85C80.95,-37.31 109.51,-47.45 132.49,-55.61" />
<polygon fill="#dc2626" stroke="#dc2626" stroke-width="2.5" points="131.11,-58.83 141.7,-58.88 133.45,-52.24 131.11,-58.83" />
<text xml:space="preserve" text-anchor="middle" x="102.55" y="-53.68" font-family="sans-serif" font-size="10.00">depends</text>
</g>

<g id="node2" class="node">
<title>service</title>
<path fill="#f8fafc" stroke="#334155" d="M351.85,-54.97C351.85,-54.97 297.55,-54.97 297.55,-54.97 291.55,-54.97 285.55,-48.97 285.55,-42.97 285.55,-42.97 285.55,-28 285.55,-28 285.55,-22 291.55,-16 297.55,-16 297.55,-16 351.85,-16 351.85,-16 357.85,-16 363.85,-22 363.85,-28 363.85,-28 363.85,-42.97 363.85,-42.97 363.85,-48.97 357.85,-54.97 351.85,-54.97" />
<text xml:space="preserve" text-anchor="middle" x="324.7" y="-30.41" font-family="sans-serif" font-size="16.00">service</text>
</g>

<g id="edge2" class="edge" data-kind="dependency" data-violation="true">
<title>service-&gt;data</title>
<path fill="none" stroke="#dc2626" stroke-width="2.5" d="M285.48,-33.4C230.79,-30.41 130.51,-24.93 73.45,-21.82" />
<polygon fill="#dc2626" stroke="#dc2626" stroke-width="2.5" points="73.89,-18.33 63.71,-21.28 73.51,-25.32 73.89,-18.33" />
<text xml:space="preserve" text-anchor="middle" x="172.55" y="-31.8" font-family="sans-serif" font-size="10.00">depends</text>
</g>

<g id="edge4" class="edge" data-kind="layer" data-violation="false">
<title>service-&gt;data</title>
<path fill="none" stroke="#64748b" stroke-dasharray="5,2" d="M285.18,-24.98C260.84,-18.89 228.6,-11.83 199.55,-8.73 175.68,-6.19 169.52,-7.61 145.55,-8.73 120.81,-9.89 93.17,-12.44 71.21,-14.77" />
<polygon fill="none" stroke="#64748b" points="71.04,-11.27 61.47,-15.83 71.79,-18.23 71.04,-11.27" />
<text xml:space="preserve" text-anchor="middle" x="172.55" y="-11.98" font-family="sans-serif" font-size="10.00">above</text>
</g>

<g id="edge3" class="edge" data-kind="dependency" data-violation="true">
<title>ui-&gt;service</title>
<path fill="none" stroke="#dc2626" stroke-width="2.5" d="M199.83,-71.42C217.3,-72.01 240.61,-71.48 260.55,-66.48 266.08,-65.1 271.7,-63.19 277.18,-60.99" />
<polygon fill="#dc2626" stroke="#dc2626" stroke-width="2.5" points="278.46,-64.25 286.18,-56.99 275.62,-57.85 278.46,-64.25" />
<text xml:space="preserve" text-anchor="middle" x="242.55" y="-74.53" font-family="sans-serif" font-size="10.00">depends</text>
</g>

<g id="edge5" class="edge" data-kind="layer" data-violation="false">
<title>ui-&gt;service</title>
<path fill="none" stroke="#64748b" stroke-dasharray="5,2" d="M199.91,-57.97C207.72,-54.91 216.38,-51.88 224.55,-49.73 240.39,-45.59 257.99,-42.56 273.91,-40.4" />
<polygon fill="none" stroke="#64748b" points="274.18,-43.89 283.66,-39.16 273.3,-36.95 274.18,-43.89" />
<text xml:space="preserve" text-anchor="middle" x="242.55" y="-52.98" font-family="sans-serif" font-size="10.00">above</text>
</g>
</g>
</svg>
